<svg xmlns="http://www.w3.org/2000/svg" version="1.1" width="41px" height="26px" style="shape-rendering:geometricPrecision; text-rendering:geometricPrecision; image-rendering:optimizeQuality; fill-rule:evenodd; clip-rule:evenodd" xmlns:xlink="http://www.w3.org/1999/xlink">
<g><path style="opacity:1" fill="none" d="M -0.5,-0.5 C 13.1667,-0.5 26.8333,-0.5 40.5,-0.5C 40.5,8.16667 40.5,16.8333 40.5,25.5C 26.8333,25.5 13.1667,25.5 -0.5,25.5C -0.5,16.8333 -0.5,8.16667 -0.5,-0.5 Z"/></g>
<g><path style="opacity:1" fill="#65d2a8" d="M 27.5,3.5 C 29.0281,3.51731 29.5281,4.18398 29,5.5C 24.985,9.68214 20.8183,13.6821 16.5,17.5C 14.684,15.1831 12.684,13.0165 10.5,11C 13.2798,10.7308 15.4464,11.8975 17,14.5C 20.7039,10.9643 24.2039,7.2976 27.5,3.5 Z"/></g>
</svg>
