<?xml version="1.0" standalone="no"?>
<!DOCTYPE svg PUBLIC "-//W3C//DTD SVG 20010904//EN"
 "http://www.w3.org/TR/2001/REC-SVG-20010904/DTD/svg10.dtd">
<svg version="1.0" xmlns="http://www.w3.org/2000/svg"
 width="217.000000pt" height="117.000000pt" viewBox="0 0 217.000000 117.000000"
 preserveAspectRatio="xMidYMid meet">
<metadata>
Created by potrace 1.16, written by Peter Selinger 2001-2019
</metadata>
<g transform="translate(0.000000,117.000000) scale(0.100000,-0.100000)"
fill=none" stroke="none">
<path d="M0 585 l0 -585 1085 0 1085 0 0 585 0 585 -1085 0 -1085 0 0 -585z
m1271 126 c-5 -9 -62 -67 -126 -130 l-116 -115 -64 64 c-36 36 -65 68 -65 73
0 4 7 10 16 14 10 4 32 -11 65 -43 l49 -49 112 112 c85 85 115 110 125 102 8
-7 10 -17 4 -28z"/>
</g>
</svg>
